<?xml version="1.0" encoding="UTF-8"?>
<svg id="_Слой_1" data-name="Слой 1" xmlns="http://www.w3.org/2000/svg" viewBox="0 0 250 102">
  <defs>
    <style>
      .cls-1 {
        fill: #19be7d;
      }
    </style>
  </defs>
  <g>
    <path class="cls-1" d="M105.09,29.39v3.69h-1.68v-2.15h-8.3v-9.78h1.79v8.24h4.93v-8.24h1.8v8.24h1.45Z"/>
    <path class="cls-1" d="M114.09,29.4v1.52h-7.34v-9.78h7.14v1.52h-5.32v2.54h4.72v1.49h-4.72v2.7h5.52Z"/>
    <path class="cls-1" d="M124.81,21.15v9.78h-1.82v-4.19h-5.06v4.19h-1.82v-9.78h1.82v4.04h5.06v-4.04h1.82Z"/>
    <path class="cls-1" d="M134.64,22.68h-3.24v8.24h-1.8v-8.24h-3.23v-1.54h8.27v1.54Z"/>
    <path class="cls-1" d="M142.45,21.57c.63.28,1.11.68,1.45,1.2s.5,1.14.5,1.86-.17,1.33-.5,1.85c-.34.53-.82.93-1.45,1.21-.63.28-1.37.42-2.22.42h-2.21v2.82h-1.82v-9.78h4.02c.85,0,1.59.14,2.22.42ZM141.95,26.06c.41-.34.61-.82.61-1.44s-.2-1.1-.61-1.44c-.41-.34-1.01-.5-1.8-.5h-2.12v3.88h2.12c.79,0,1.39-.17,1.8-.5Z"/>
    <path class="cls-1" d="M95.11,37.91h7.62v1.5h-5.83v2.4h2.89c1.17,0,2.07.24,2.68.73.61.49.92,1.19.92,2.12,0,.97-.34,1.72-1.01,2.24-.67.53-1.63.79-2.86.79h-4.4v-9.78ZM99.42,46.3c.7,0,1.23-.13,1.59-.41.36-.27.55-.66.55-1.17,0-1.01-.71-1.51-2.14-1.51h-2.52v3.09h2.52Z"/>
    <path class="cls-1" d="M113.42,37.91l-4.25,7.9c-.37.7-.82,1.22-1.33,1.57-.52.35-1.08.52-1.68.52-.48,0-.96-.1-1.44-.31l.45-1.43c.38.12.7.18.95.18.59,0,1.07-.3,1.45-.91l.15-.24-3.9-7.29h1.94l2.89,5.74,2.98-5.74h1.79Z"/>
    <path class="cls-1" d="M115.67,37.91l2.31,3.27,2.31-3.27h2.12l-3.28,4.7,3.55,5.09h-2.15l-2.54-3.56-2.53,3.56h-2.1l3.54-5.02-3.31-4.77h2.1Z"/>
    <path class="cls-1" d="M130.52,39.45h-4.85v8.24s-1.77,0-1.77,0v-9.78h6.64v1.54Z"/>
    <path class="cls-1" d="M136.66,45.43h-4.89l-.96,2.26h-1.87l4.4-9.78h1.79l4.42,9.78h-1.9l-.98-2.26ZM136.06,44.01l-1.84-4.28-1.83,4.28h3.68Z"/>
    <path class="cls-1" d="M149.46,37.91v9.78h-1.79v-8.24h-3.86l-.08,2.45c-.05,1.37-.16,2.48-.34,3.33-.18.85-.46,1.5-.85,1.94-.39.44-.93.66-1.62.66-.24,0-.57-.05-.99-.14l.13-1.58c.12.04.26.06.42.06.57,0,.97-.34,1.21-1.01.24-.68.38-1.74.44-3.19l.14-4.05h7.2Z"/>
    <path class="cls-1" d="M159.31,39.45h-3.24v8.24h-1.8v-8.24h-3.23v-1.54h8.27v1.54Z"/>
    <path class="cls-1" d="M168.21,46.17v1.52h-7.34v-9.78h7.14v1.52h-5.32v2.54h4.72v1.5h-4.72v2.7h5.52Z"/>
    <path class="cls-1" d="M176.47,38.33c.63.28,1.11.68,1.45,1.2.34.52.5,1.14.5,1.86s-.17,1.33-.5,1.85-.82.93-1.45,1.21c-.63.28-1.37.42-2.21.42h-2.21v2.82h-1.82v-9.78h4.02c.85,0,1.59.14,2.21.42ZM175.98,42.83c.41-.34.62-.82.62-1.44s-.21-1.1-.62-1.44c-.41-.34-1.01-.5-1.8-.5h-2.12v3.88h2.12c.79,0,1.39-.17,1.8-.5Z"/>
    <path class="cls-1" d="M182.1,47.19c-.8-.43-1.42-1.03-1.87-1.8-.45-.76-.68-1.63-.68-2.59s.23-1.82.68-2.59c.46-.76,1.08-1.36,1.88-1.8.8-.43,1.69-.65,2.68-.65.8,0,1.53.14,2.19.42.66.28,1.22.68,1.68,1.22l-1.17,1.1c-.71-.76-1.58-1.15-2.61-1.15-.67,0-1.27.15-1.8.44-.53.29-.95.7-1.24,1.22-.3.52-.45,1.11-.45,1.77s.15,1.25.45,1.77c.3.52.71.93,1.24,1.22.53.29,1.13.44,1.8.44,1.03,0,1.91-.39,2.61-1.16l1.17,1.12c-.46.53-1.02.94-1.68,1.22-.67.28-1.4.42-2.2.42-.99,0-1.88-.22-2.68-.65Z"/>
    <path class="cls-1" d="M193.96,43.57h-1.82v4.12h-1.79v-9.78h1.79v4.09h1.87l2.81-4.09h1.93l-3.34,4.74,3.47,5.04h-2.05l-2.86-4.12Z"/>
    <path class="cls-1" d="M200.14,37.91h1.79v6.94l5.25-6.94h1.69v9.78h-1.79v-6.93l-5.25,6.93h-1.69v-9.78Z"/>
    <path class="cls-1" d="M212.74,37.91l2.31,3.27,2.31-3.27h2.12l-3.28,4.7,3.55,5.09h-2.15l-2.54-3.56-2.53,3.56h-2.1l3.54-5.02-3.31-4.77h2.1Z"/>
    <path class="cls-1" d="M95.11,54.68h1.79v6.94l5.25-6.94h1.69v9.78h-1.79v-6.93l-5.25,6.93h-1.69v-9.78Z"/>
    <path class="cls-1" d="M121.4,55.19c.77.43,1.37,1.03,1.81,1.8.44.76.66,1.63.66,2.58s-.22,1.82-.66,2.58c-.44.76-1.04,1.36-1.81,1.8-.77.43-1.63.65-2.59.65-.88,0-1.67-.18-2.4-.54-.72-.36-1.31-.87-1.77-1.52-.46-.65-.75-1.39-.86-2.22h-1.54v4.15h-1.79v-9.78h1.79v4.01h1.57c.13-.81.43-1.53.89-2.16s1.05-1.12,1.76-1.47c.71-.35,1.5-.52,2.35-.52.96,0,1.82.22,2.59.65ZM120.46,62.58c.49-.29.88-.69,1.16-1.22s.42-1.12.42-1.79-.14-1.27-.42-1.79-.67-.93-1.16-1.22c-.49-.29-1.04-.43-1.65-.43s-1.15.14-1.64.43c-.49.29-.88.69-1.16,1.22s-.43,1.12-.43,1.79.14,1.27.43,1.79.67.93,1.16,1.22c.49.29,1.04.43,1.64.43s1.16-.14,1.65-.43Z"/>
    <path class="cls-1" d="M132.14,55.1c.63.28,1.11.68,1.45,1.2.34.52.5,1.14.5,1.86s-.17,1.33-.5,1.85-.82.93-1.45,1.21c-.63.28-1.37.42-2.21.42h-2.21v2.82h-1.82v-9.78h4.02c.85,0,1.59.14,2.21.42ZM131.64,59.6c.41-.34.62-.81.62-1.44s-.21-1.1-.62-1.44c-.41-.34-1.01-.5-1.8-.5h-2.12v3.88h2.12c.79,0,1.39-.17,1.8-.5Z"/>
    <path class="cls-1" d="M135.82,54.68h1.79v6.94l5.25-6.94h1.69v9.78h-1.79v-6.93l-5.25,6.93h-1.69v-9.78Z"/>
    <path class="cls-1" d="M156.89,62.93v3.62h-1.68v-2.08h-7.5v2.08h-1.69v-3.62h.43c.62-.03,1.05-.48,1.29-1.36.25-.88.4-2.14.45-3.78l.11-3.1h7.17v8.24h1.41ZM149.48,61.12c-.16.84-.41,1.45-.75,1.81h4.96v-6.71h-3.83l-.07,1.73c-.05,1.27-.15,2.32-.31,3.16Z"/>
    <path class="cls-1" d="M158.61,54.68h1.79v6.94l5.25-6.94h1.69v9.78h-1.79v-6.93l-5.25,6.93h-1.69v-9.78Z"/>
    <path class="cls-1" d="M177.43,54.68v9.78h-1.8v-3.69c-.92.34-1.8.52-2.63.52-1.25,0-2.21-.3-2.89-.9s-1.01-1.46-1.01-2.59v-3.12h1.8v2.92c0,.69.2,1.22.6,1.58s.97.54,1.72.54c.85,0,1.65-.17,2.4-.52v-4.53h1.8Z"/>
    <path class="cls-1" d="M187.5,62.94v1.52h-7.34v-9.78h7.14v1.52h-5.32v2.54h4.72v1.5h-4.72v2.7h5.52Z"/>
    <path class="cls-1" d="M191.31,63.95c-.8-.43-1.42-1.03-1.87-1.8-.45-.76-.68-1.63-.68-2.58s.23-1.82.68-2.58c.46-.76,1.08-1.36,1.88-1.8s1.69-.65,2.68-.65c.8,0,1.53.14,2.19.42s1.22.68,1.68,1.22l-1.17,1.1c-.71-.76-1.58-1.15-2.61-1.15-.67,0-1.27.15-1.8.44s-.95.7-1.24,1.22c-.3.52-.45,1.11-.45,1.77s.15,1.25.45,1.77c.3.52.71.93,1.24,1.22s1.13.44,1.8.44c1.03,0,1.9-.39,2.61-1.16l1.17,1.12c-.46.53-1.02.94-1.68,1.22-.67.28-1.4.42-2.2.42-.99,0-1.88-.22-2.68-.65Z"/>
    <path class="cls-1" d="M203.17,60.34h-1.82v4.12h-1.79v-9.78h1.79v4.09h1.87l2.81-4.09h1.93l-3.34,4.74,3.47,5.04h-2.05l-2.86-4.12Z"/>
    <path class="cls-1" d="M209.35,54.68h1.79v6.94l5.25-6.94h1.69v9.78h-1.79v-6.93l-5.25,6.93h-1.69v-9.78Z"/>
    <path class="cls-1" d="M221.95,54.68l2.31,3.27,2.31-3.27h2.12l-3.28,4.7,3.55,5.09h-2.15l-2.54-3.56-2.53,3.56h-2.1l3.54-5.02-3.31-4.77h2.1Z"/>
    <path class="cls-1" d="M103.5,71.45l-4.25,7.9c-.37.7-.82,1.22-1.33,1.57-.52.35-1.08.52-1.68.52-.48,0-.96-.1-1.44-.31l.45-1.43c.38.12.7.18.95.18.59,0,1.07-.3,1.45-.91l.15-.24-3.9-7.29h1.94l2.89,5.74,2.98-5.74h1.79Z"/>
    <path class="cls-1" d="M106.48,80.72c-.8-.43-1.42-1.03-1.87-1.8-.45-.76-.68-1.63-.68-2.58s.23-1.82.68-2.58c.46-.76,1.08-1.36,1.88-1.8.8-.43,1.69-.65,2.68-.65.8,0,1.53.14,2.19.42.66.28,1.22.69,1.68,1.22l-1.17,1.1c-.71-.76-1.58-1.15-2.61-1.15-.67,0-1.27.15-1.8.44-.53.29-.95.7-1.24,1.22-.3.52-.45,1.11-.45,1.77s.15,1.25.45,1.77c.3.52.71.93,1.24,1.22.53.29,1.13.44,1.8.44,1.03,0,1.9-.39,2.61-1.16l1.17,1.12c-.46.53-1.02.94-1.68,1.22-.67.28-1.4.42-2.2.42-.99,0-1.88-.22-2.68-.65Z"/>
    <path class="cls-1" d="M122.84,71.45v9.78h-1.79v-8.24h-3.86l-.08,2.45c-.05,1.37-.16,2.48-.34,3.33-.18.85-.46,1.5-.85,1.94-.39.44-.93.66-1.62.66-.24,0-.57-.05-.99-.14l.13-1.58c.12.04.26.06.42.06.57,0,.97-.34,1.21-1.01.24-.68.38-1.74.44-3.19l.14-4.05h7.2Z"/>
    <path class="cls-1" d="M133.99,71.45l-4.25,7.9c-.37.7-.82,1.22-1.33,1.57-.52.35-1.08.52-1.68.52-.48,0-.96-.1-1.44-.31l.45-1.43c.38.12.7.18.95.18.59,0,1.07-.3,1.45-.91l.15-.24-3.9-7.29h1.94l2.89,5.74,2.98-5.74h1.79Z"/>
    <path class="cls-1" d="M141.88,72.99h-4.85v8.24s-1.77,0-1.77,0v-9.78h6.64v1.54Z"/>
  </g>
  <g>
    <path class="cls-1" d="M74.42,51c0,5.52-2.01,10.57-5.34,14.46l6.29,6.29c4.93-5.51,7.93-12.78,7.93-20.75s-2.99-15.22-7.9-20.72l-6.29,6.29c3.31,3.88,5.31,8.92,5.31,14.43Z"/>
    <path class="cls-1" d="M52.17,28.75c5.54,0,10.6,2.02,14.49,5.37l6.29-6.29c-5.51-4.95-12.79-7.96-20.78-7.96s-15.24,3-20.75,7.93l6.29,6.29c3.89-3.33,8.94-5.34,14.46-5.34Z"/>
    <path class="cls-1" d="M52.17,73.25c-5.51,0-10.54-2-14.43-5.31l-6.29,6.29c5.5,4.91,12.76,7.9,20.72,7.9s15.24-3,20.75-7.93l-6.29-6.29c-3.89,3.33-8.94,5.34-14.46,5.34Z"/>
    <path class="cls-1" d="M29.93,51c0-5.52,2.01-10.57,5.34-14.46l-6.29-6.29c-4.93,5.51-7.93,12.78-7.93,20.75s3.01,15.27,7.96,20.78l6.29-6.29c-3.35-3.89-5.37-8.96-5.37-14.49Z"/>
    <g>
      <path class="cls-1" d="M57.94,43.28v-1.5h0c-.06-3.13-2.62-5.65-5.76-5.65s-5.7,2.52-5.76,5.65h0v1.5h-5.76v4.48l11.53,3.09,11.53-3.09v-4.48h-5.76ZM49.87,43.28v-1.38c0-1.27,1.03-2.31,2.31-2.31s2.31,1.03,2.31,2.31v1.38h-4.61Z"/>
      <polygon class="cls-1" points="56.78 53.19 52.17 54.42 45.9 52.74 40.65 51.34 40.65 60.57 63.7 60.57 63.7 51.34 56.78 53.19"/>
    </g>
  </g>
</svg>